<?xml version="1.0" encoding="UTF-8"?>
<svg width="96px" height="96px" viewBox="0 0 96 96" version="1.1" xmlns="http://www.w3.org/2000/svg" xmlns:xlink="http://www.w3.org/1999/xlink">
    <g id="Page-1" stroke="none" stroke-width="1" fill="none" fill-rule="evenodd">
        <g id="Artboard" transform="translate(-52.000000, -108.000000)">
            <g id="Group-2" transform="translate(52.000000, 108.000000)">
                <circle id="Oval" fill="#01132C" cx="48" cy="48" r="48"></circle>
                <g id="Group-3" transform="translate(19.000000, 19.000000)" fill="#17D78F">
                    <path d="M21,0 C23.0618892,-3.78762904e-16 24.7333807,1.67149147 24.7333807,3.73338068 C24.7333807,4.0924752 24.6815729,4.44969142 24.5795584,4.79399056 L11.4204416,49.2060094 C10.5779528,52.0494094 7.96558782,54 5,54 C2.93811078,54 1.26661932,52.3285085 1.26661932,50.2666193 C1.26661932,49.9075248 1.31842709,49.5503086 1.42044165,49.2060094 L14.5795584,4.79399056 C15.4220472,1.95059056 18.0344122,5.44769644e-16 21,0 Z" id="Rectangle"></path>
                    <path d="M51.8402602,18.9262223 L65.2172996,45.0432993 C65.9880234,46.5480458 65.3929805,48.3926789 63.888234,49.1634027 C63.4563164,49.3846288 62.9779921,49.5 62.492715,49.5 L61.4310996,49.5 C59.0363573,49.5 56.8709429,48.0759983 55.9221307,45.8772382 L48.5045466,28.6878624 C48.0669092,27.6736892 46.8899841,27.2063147 45.8758109,27.6439521 C45.4295864,27.8365076 45.0687425,28.1849551 44.8607119,28.6241786 L36.5986118,46.0682896 C35.6060646,48.1638953 33.4948506,49.5 31.1760766,49.5 L30.2366209,49.5 C28.637363,49.5 27.3409084,48.2035453 27.3409084,46.6042875 C27.3409084,46.1452416 27.4500432,45.6927727 27.6593112,45.284202 L41.1597398,18.9262223 C42.6703796,15.976878 46.285911,14.8105776 49.2352552,16.3212173 C50.3552822,16.8948897 51.2665878,17.8061953 51.8402602,18.9262223 Z" id="Triangle" transform="translate(46.500000, 29.000000) rotate(90.000000) translate(-46.500000, -29.000000) "></path>
                </g>
            </g>
        </g>
    </g>
</svg>