<?xml version="1.0" encoding="UTF-8"?>
<svg width="372px" height="68px" viewBox="0 0 372 68" version="1.1" xmlns="http://www.w3.org/2000/svg" xmlns:xlink="http://www.w3.org/1999/xlink">
    <!-- Generator: Sketch 59.1 (86144) - https://sketch.com -->
    <title>Group</title>
    <desc>Created with Sketch.</desc>
    <g id="Page-1" stroke="none" stroke-width="1" fill="none" fill-rule="evenodd">
        <g id="Artboard" transform="translate(-132.000000, -123.000000)">
            <g id="Group" transform="translate(125.000000, 120.000000)">
                <path d="M52.032,58 L61.824,58 L61.824,13.2 L52.032,13.2 L52.032,58 Z M81.816,58.832 C90.008,58.832 96.216,54.8 97.176,48.72 L87.576,48.72 C86.744,50.64 84.824,51.472 81.816,51.472 C77.464,51.472 74.776,49.296 74.584,45.264 L97.368,45.264 L97.4604177,44.389157 C97.581157,43.1657521 97.624,42.2850909 97.624,40.976 C97.624,32.272 91.096,26.32 81.496,26.32 C71.448,26.32 64.856,32.464 64.856,42.576 C64.856,52.88 71.32,58.832 81.816,58.832 Z M74.584,39.184 C74.648,35.408 77.208,32.912 81.432,32.912 C85.592,32.912 87.896,35.088 87.96,39.184 L74.584,39.184 Z M112.944,58.832 C117.232,58.832 121.072,56.72 122.736,53.648 L122.736,58 L132.464,58 L132.464,27.152 L122.736,27.152 L122.736,31.568 C121.072,28.432 117.552,26.32 113.072,26.32 C104.112,26.32 98.416,33.36 98.416,42.576 C98.416,51.856 103.728,58.832 112.944,58.832 Z M115.76,50.704 C111.216,50.704 108.4,47.248 108.4,42.576 C108.4,37.904 111.216,34.512 115.76,34.512 C120.624,34.512 123.12,38.16 123.12,42.576 C123.12,47.056 120.624,50.704 115.76,50.704 Z M157.832,26.32 C153.224,26.32 149.384,28.624 147.72,31.568 L147.72,27.152 L137.992,27.152 L137.992,70.8 L147.72,70.8 L147.72,53.648 C149.32,56.528 153.032,58.832 157.576,58.832 C166.088,58.832 172.04,52.24 172.04,42.576 C172.04,32.848 166.28,26.32 157.832,26.32 Z M154.76,50.704 C150.408,50.704 147.336,47.44 147.336,42.576 C147.336,37.776 150.344,34.512 154.76,34.512 C159.048,34.512 162.056,37.84 162.056,42.576 C162.056,47.376 159.048,50.704 154.76,50.704 Z M189.408,58.832 C198.624,58.832 204.64,54.032 205.408,46.544 L195.616,46.544 C194.912,49.232 193.056,50.512 189.472,50.512 C185.248,50.512 182.688,47.696 182.688,42.576 C182.688,37.456 185.248,34.64 189.472,34.64 C193.056,34.64 194.912,35.984 195.616,38.864 L205.408,38.864 C204.64,31.184 198.624,26.32 189.408,26.32 C179.232,26.32 172.896,32.848 172.896,42.576 C172.896,52.304 179.232,58.832 189.408,58.832 Z M223.16,58.832 C233.72,58.832 240.248,51.984 240.248,42.576 C240.248,33.168 233.72,26.32 223.16,26.32 C212.536,26.32 206.008,33.168 206.008,42.576 C206.008,51.984 212.536,58.832 223.16,58.832 Z M223.16,50.576 C218.488,50.576 215.8,47.248 215.8,42.576 C215.8,37.904 218.488,34.576 223.16,34.576 C227.768,34.576 230.52,37.904 230.52,42.576 C230.52,47.248 227.768,50.576 223.16,50.576 Z M265.36,13.2 L265.36,31.568 C263.696,28.432 260.176,26.32 255.696,26.32 C246.736,26.32 241.04,33.36 241.04,42.576 C241.04,51.856 246.352,58.832 255.568,58.832 C259.856,58.832 263.696,56.72 265.36,53.648 L265.36,58 L275.088,58 L275.088,13.2 L265.36,13.2 Z M258.384,50.704 C253.84,50.704 251.024,47.248 251.024,42.576 C251.024,37.904 253.84,34.512 258.384,34.512 C263.248,34.512 265.744,38.16 265.744,42.576 C265.744,47.056 263.248,50.704 258.384,50.704 Z M295.144,58.832 C303.336,58.832 309.544,54.8 310.504,48.72 L300.904,48.72 C300.072,50.64 298.152,51.472 295.144,51.472 C290.792,51.472 288.104,49.296 287.912,45.264 L310.696,45.264 L310.788418,44.389157 C310.909157,43.1657521 310.952,42.2850909 310.952,40.976 C310.952,32.272 304.424,26.32 294.824,26.32 C284.776,26.32 278.184,32.464 278.184,42.576 C278.184,52.88 284.648,58.832 295.144,58.832 Z M287.912,39.184 C287.976,35.408 290.536,32.912 294.76,32.912 C298.92,32.912 301.224,35.088 301.288,39.184 L287.912,39.184 Z" id="leapcode" fill="#022B69" fill-rule="nonzero"></path>
                <path d="M338,3 C340.048632,3 341.709376,4.66074405 341.709376,6.70937565 C341.709376,7.07384209 341.655661,7.43631874 341.549963,7.78512202 L324.450037,64.214878 C323.588897,67.0566415 320.969374,69 318,69 C315.951368,69 314.290624,67.339256 314.290624,65.2906243 C314.290624,64.9261579 314.344339,64.5636813 314.450037,64.214878 L331.549963,7.78512202 C332.411103,4.94335853 335.030626,3 338,3 Z" id="Rectangle" fill="#0066f5"></path>
                <path d="M369.866563,28.7331263 L383.707357,56.4147136 C384.489906,57.9798128 383.855525,59.8829583 382.290425,60.6655079 C381.850482,60.8854795 381.365366,61 380.873494,61 L379.730125,61 C377.316425,61 375.137718,59.5536521 374.200697,57.3292554 L366.51705,39.0890178 C366.088246,38.0710783 364.915428,37.5934896 363.897489,38.0222937 C363.438207,38.215765 363.067704,38.5737395 362.858554,39.0260971 L354.30871,57.5180174 C353.327168,59.6409318 351.201491,61 348.862648,61 L347.849398,61 C346.194149,61 344.852305,59.658156 344.852305,58.0029075 C344.852305,57.5376235 344.960635,57.0787295 345.168717,56.6625669 L359.133437,28.7331263 C360.615372,25.7692553 364.219411,24.5679092 367.183282,26.0498447 C368.344446,26.6304269 369.285981,27.5719619 369.866563,28.7331263 Z" id="Triangle" fill="#0066f5" transform="translate(364.500000, 39.500000) rotate(90.000000) translate(-364.500000, -39.500000) "></path>
                <path d="M26.8665631,28.7331263 L40.7073568,56.4147136 C41.4899064,57.9798128 40.8555246,59.8829583 39.2904254,60.6655079 C38.8504821,60.8854795 38.3653655,61 37.873494,61 L36.730125,61 C34.3164248,61 32.1377181,59.5536521 31.2006974,57.3292554 L23.5170499,39.0890178 C23.0882459,38.0710783 21.9154285,37.5934896 20.897489,38.0222937 C20.4382068,38.215765 20.0677036,38.5737395 19.8585535,39.0260971 L11.3087095,57.5180174 C10.327168,59.6409318 8.20149135,61 5.86264781,61 L4.84939759,61 C3.19414909,61 1.85230505,59.658156 1.85230505,58.0029075 C1.85230505,57.5376235 1.96063524,57.0787295 2.16871653,56.6625669 L16.1334369,28.7331263 C17.6153723,25.7692553 21.2194106,24.5679092 24.1832816,26.0498447 C25.344446,26.6304269 26.2859809,27.5719619 26.8665631,28.7331263 Z" id="Triangle" fill="#0066f5" transform="translate(21.500000, 39.500000) scale(-1, 1) rotate(90.000000) translate(-21.500000, -39.500000) "></path>
            </g>
        </g>
    </g>
</svg>