<svg width="1440" height="679" viewBox="0 0 1440 679" fill="none" xmlns="http://www.w3.org/2000/svg">
<path d="M-123 505C-94.6667 421.333 -59 393 132 393C355 393 390 306.114 630 306.114C882 306.114 986 483.902 1205 461C1424 438.098 1497.67 127.667 1530 85" stroke="#FF8E5E" stroke-dasharray="5 5"/>
<path d="M1469 65C1415 205 1155 694 828 379C501 64 -5 407 -46 515" stroke="#6A6968" stroke-width="2"/>
<path d="M-221 496C-192.667 412.333 -56 296 100 296C289 296 394 676 622 676C850 676 1015 330 1151 188C1287 46 1398 19 1471 3" stroke="#463730" stroke-width="2"/>
</svg>
