<svg width="320" height="328" viewBox="0 0 320 328" fill="none" xmlns="http://www.w3.org/2000/svg">
<path d="M-21.9088 292.94C-21.5524 268.274 -14.5078 224.948 36.2616 241.308C106 263.781 102.213 175.36 166 154.781C232.977 133.173 271.032 192.241 327.274 167.376C383.516 142.511 376.477 53.688 381.412 39.5757" stroke="#FF8E5E" stroke-dasharray="5 5"/>
<path d="M363.485 39.4904C360.719 81.4649 372.659 240.496 215.077 179.511C57.494 118.526 -10.3724 260.461 -12.3266 292.784" stroke="#6A6968" stroke-width="3"/>
<path d="M-47.7275 277.892C-47.3711 253.226 -21.0229 210.588 20.4387 197.212C70.6711 181.006 131.161 272.999 191.759 253.449C252.357 233.899 266.543 127.791 290.513 78.3892C314.483 28.9871 341.669 12.2933 359.699 1.78141" stroke="#FF8E5E" stroke-width="3"/>
</svg>
