<svg xmlns="http://www.w3.org/2000/svg" xmlns:xlink="http://www.w3.org/1999/xlink" viewBox="0 0 1452.5 1130"><defs><style>.a{fill:none;}.b{fill:#e8e8e8;}.c{opacity:0.51;isolation:isolate;fill:url(#a);}</style><pattern id="a" width="36.876" height="21.29041" patternTransform="matrix(1.82019, 0, 0, -1.82019, 157.30085, 1660.75748)" patternUnits="userSpaceOnUse" viewBox="0 0 36.876 21.29"><rect class="a" width="36.876" height="21.29041"/><rect class="a" y="-0.00026" width="36.8761" height="21.29047"/><polygon class="b" points="0 21.29 0.75 21.29 0 20.857 0 21.29"/><polygon class="b" points="4.848 21.29 0 18.491 0 19.357 3.348 21.29 4.848 21.29"/><polygon class="b" points="8.945 21.29 0 16.126 0 16.992 7.445 21.29 8.945 21.29"/><polygon class="b" points="13.042 21.29 0 13.76 0 14.626 11.542 21.29 13.042 21.29"/><polygon class="b" points="17.139 21.29 0 11.395 0 12.261 15.639 21.29 17.139 21.29"/><polygon class="b" points="21.237 21.29 0 9.029 0 9.895 19.737 21.29 21.237 21.29"/><polygon class="b" points="25.334 21.29 0 6.663 0 7.529 23.834 21.29 25.334 21.29"/><polygon class="b" points="29.432 21.29 0 4.298 0 5.164 27.932 21.29 29.432 21.29"/><polygon class="b" points="33.529 21.29 0 1.932 0 2.798 32.029 21.29 33.529 21.29"/><polygon class="b" points="36.876 21.29 36.876 20.857 0.75 0 0 0 0 0.433 36.126 21.29 36.876 21.29"/><polygon class="b" points="36.876 18.491 4.847 0 3.347 0 36.876 19.357 36.876 18.491"/><polygon class="b" points="36.876 16.126 8.944 0 7.445 0 36.876 16.992 36.876 16.126"/><polygon class="b" points="36.876 13.76 13.042 0 11.542 0 36.876 14.626 36.876 13.76"/><polygon class="b" points="36.876 11.395 17.139 0 15.639 0 36.876 12.261 36.876 11.395"/><polygon class="b" points="36.876 9.029 21.236 0 19.737 0 36.876 9.895 36.876 9.029"/><polygon class="b" points="36.876 6.663 25.334 0 23.834 0 36.876 7.529 36.876 6.663"/><polygon class="b" points="36.876 4.298 29.431 0 27.932 0 36.876 5.164 36.876 4.298"/><polygon class="b" points="36.876 1.932 33.528 0 32.029 0 36.876 2.798 36.876 1.932"/><polygon class="b" points="36.876 0 36.126 0 36.876 0.433 36.876 0"/></pattern></defs><title>home-device-section</title><polygon class="c" points="832.5 303 1177.5 0 1452.5 62 1207.5 1130 0 1062.5 832.5 303"/></svg>