<svg xmlns="http://www.w3.org/2000/svg" viewBox="0 0 1450 873.106"><defs><style>.a{fill:none}.b{fill:#cdf2ca}.c{fill:#e8e8e8}.d{fill:#bce5f7}</style><pattern id="a" width="36.876" height="21.29" patternTransform="translate(-67.156 -1142.349) scale(1.90685)" patternUnits="userSpaceOnUse"><path class="a" d="M0 0h36.876v21.29H0z"/><path class="c" d="M0 0h.75L0 .433V0zM4.848 0L0 2.799v-.866L3.348 0h1.5zM8.945 0L0 5.164v-.866L7.445 0h1.5zM13.042 0L0 7.53v-.866L11.542 0h1.5zM17.139 0L0 9.895v-.866L15.639 0h1.5zM21.237 0L0 12.261v-.866L19.737 0h1.5zM25.334 0L0 14.627v-.866L23.834 0h1.5zM29.432 0L0 16.992v-.866L27.932 0h1.5zM33.529 0L0 19.358v-.866L32.029 0h1.5zM36.876 0v.433L.75 21.29H0v-.433L36.126 0h.75zM36.876 2.799L4.847 21.29h-1.5L36.876 1.933v.866zM36.876 5.164L8.944 21.29H7.445L36.876 4.298v.866zM36.876 7.53L13.042 21.29h-1.5L36.876 6.664v.866zM36.876 9.895L17.139 21.29h-1.5L36.876 9.029v.866zM36.876 12.261l-15.64 9.029h-1.499l17.139-9.895v.866zM36.876 14.627L25.334 21.29h-1.5l13.042-7.529v.866zM36.876 16.992l-7.445 4.298h-1.499l8.944-5.164v.866zM36.876 19.358l-3.348 1.932h-1.499l4.847-2.798v.866zM36.876 21.29h-.75l.75-.433v.433z"/></pattern><pattern id="b" width="36.876" height="21.29" patternTransform="translate(-67.156 -1142.349) scale(1.90685)" patternUnits="userSpaceOnUse"><path class="a" d="M0 0h36.876v21.29H0z"/><path class="d" d="M0 0h.5L0 .289V0zM4.597 0L0 2.654v-.577L3.598 0h.999zM8.695 0L0 5.02v-.577L7.695 0h1zM12.792 0L0 7.385v-.576L11.793 0h.999zM16.889 0L0 9.751v-.577L15.89 0h.999zM20.986 0L0 12.117v-.577L19.987 0h.999zM25.083 0L0 14.482v-.577L24.084 0h.999zM29.181 0L0 16.848v-.577L28.182 0h.999zM33.278 0L0 19.213v-.577L32.279 0h.999zM36.876 0v.289L.5 21.291H0v-.289L36.376 0h.5zM36.876 2.654L4.597 21.291h-1L36.876 2.077v.577zM36.876 5.02L8.695 21.291h-1L36.876 4.443v.577zM36.876 7.385L12.792 21.291h-.999L36.876 6.809v.576zM36.876 9.751l-19.987 11.54h-.999L36.876 9.174v.577zM36.876 12.117l-15.89 9.174h-.999l16.889-9.751v.577zM36.876 14.482l-11.793 6.809h-.999l12.792-7.386v.577zM36.876 16.848l-7.695 4.443h-.999l8.694-5.02v.577zM36.876 19.213l-3.598 2.078h-.999l4.597-2.654v.576zM36.876 21.291h-.5l.5-.289v.289z"/></pattern><pattern id="c" width="22.236" height="24.718" patternTransform="translate(-66.156 -1119.614) scale(1.90685)" patternUnits="userSpaceOnUse"><path class="a" d="M0 0h22.236v24.718H0z"/><path class="b" d="M16.677.35v.308l.001.001V.35h-.001zM16.677 24.062v.308h.001v-.308h-.001zM27.795 22.205v.49a6.545 6.545 0 0 1-1.102 1.045 2.29 2.29 0 0 0 1.102.322v.308a2.678 2.678 0 0 1-1.39-.433 2.446 2.446 0 0 1-2.779 0 2.447 2.447 0 0 1-2.78 0 2.68 2.68 0 0 1-1.39.433l-.052.001a3.227 3.227 0 0 1-1.422-.387 2.627 2.627 0 0 1-1.304.386v-.308a2.222 2.222 0 0 0 .995-.265 3.599 3.599 0 0 1-.995-1.061v-.537a14.105 14.105 0 0 0 1.211-1.854 13.46 13.46 0 0 1-.35-.7L16.678 18v-.668l1.215-2.32-1.215-2.319v-.667l1.215-2.319-1.215-2.32v-.666l.866-1.653c.019-.042.142-.31.345-.692a14.133 14.133 0 0 0-1.211-1.854v-.508a4.13 4.13 0 0 1 .754-.8c.118-.091.228-.165.338-.238A2.285 2.285 0 0 0 16.678.66V.35a2.685 2.685 0 0 1 1.398.44A2.736 2.736 0 0 1 19.47.35a2.755 2.755 0 0 1 1.402.416 2.444 2.444 0 0 1 2.754.017 2.446 2.446 0 0 1 2.78 0A2.68 2.68 0 0 1 27.794.35v.308a2.29 2.29 0 0 0-1.102.323 6.547 6.547 0 0 1 1.102 1.044v.49a13.988 13.988 0 0 0-1.212 1.86c.205.385.33.657.35.7l.862 1.647v.666-.001l-1.216 2.32 1.216 2.32v.666l-1.216 2.32 1.216 2.32v-.001.667l-.867 1.654c-.018.041-.142.31-.345.692a14.006 14.006 0 0 0 1.212 1.86zm-1.39-6.86l-1.215 2.32.966 1.845c.005.01.095.206.25.503.152-.294.24-.486.244-.495l.97-1.852zm-5.559-5.305l-1.215 2.32 1.215 2.32 1.216-2.32zm1.39 1.987l1.216-2.32-1.216-2.32-1.215 2.32zm-1.215 2.986l1.215 2.32 1.215-2.32-1.215-2.32zm2.605-.333l1.215-2.32-1.215-2.32-1.215 2.32zm.174.333l1.215 2.32 1.216-2.32-1.215-2.32zm1.216-2.986l1.215-2.32-1.215-2.32-1.216 2.32zm.866-6.96c.019-.04.143-.31.346-.691a14.005 14.005 0 0 0-1.212-1.861 13.95 13.95 0 0 0-1.204 1.846c.202.394.323.673.342.717l.861 1.644zm-2.25-.371c-.156.3-.247.497-.251.506l-.97 1.853 1.215 2.32 1.215-2.32-.966-1.845c-.005-.011-.092-.211-.243-.514zm-.175-.337a12.976 12.976 0 0 0-1.197-1.875 13.906 13.906 0 0 0-1.236 1.892c.205.384.33.656.35.7l.862 1.646.867-1.654c.019-.043.146-.318.354-.71zm-2.61.348c-.153.294-.241.486-.245.495l-.97 1.853 1.214 2.32 1.216-2.32-.966-1.845c-.005-.01-.095-.206-.25-.503zm-.178-.33a14.003 14.003 0 0 0-1.213-1.862 13.965 13.965 0 0 0-1.211 1.86c.204.385.33.657.35.7l.862 1.647.867-1.654c.018-.042.142-.31.345-.692zm-1.212 3.01l-1.216 2.32 1.215 2.32 1.216-2.32zm0 5.305l-1.216 2.32 1.216 2.32 1.215-2.32zm0 5.306l-.867 1.655c-.019.041-.143.31-.345.692a13.997 13.997 0 0 0 1.212 1.86 13.983 13.983 0 0 0 1.212-1.86 13.53 13.53 0 0 1-.35-.7zm1.39 2.015c.152-.294.24-.486.244-.495l.97-1.853-1.215-2.32-1.215 2.32.966 1.845c.005.01.095.206.25.503zm.177.331a14.012 14.012 0 0 0 1.212 1.86 13.94 13.94 0 0 0 1.212-1.86c-.204-.384-.33-.656-.35-.7l-.862-1.646-.867 1.655c-.018.041-.142.31-.345.691zm2.602-.33c.153-.295.241-.487.245-.496l.97-1.852-1.215-2.32-1.216 2.32.966 1.844c.005.01.095.206.25.503zm.178.33a14.006 14.006 0 0 0 1.212 1.861 13.983 13.983 0 0 0 1.211-1.86 13.48 13.48 0 0 1-.35-.7l-.862-1.647-.866 1.655c-.019.041-.143.31-.345.692zm2.601-10.304l-1.215 2.32 1.215 2.32 1.216-2.32zm0-5.333c-.152.294-.24.486-.245.495l-.97 1.853 1.215 2.32 1.216-2.32-.966-1.845c-.005-.01-.095-.206-.25-.503zM25.22 2.269a13.52 13.52 0 0 1 1.186 1.783 13.506 13.506 0 0 1 1.186-1.783 6.08 6.08 0 0 0-1.186-1.113 6.08 6.08 0 0 0-1.186 1.113zM23.914.98a6.547 6.547 0 0 1 1.102 1.044A6.545 6.545 0 0 1 26.118.981a2.045 2.045 0 0 0-2.204 0zm-1.447 1.255a12.601 12.601 0 0 1 1.17 1.795 13.47 13.47 0 0 1 1.175-1.762 6.08 6.08 0 0 0-1.186-1.113 6.022 6.022 0 0 0-1.159 1.08zm-.729-.797a7.16 7.16 0 0 1 .525.555A6.487 6.487 0 0 1 23.338.981a2.039 2.039 0 0 0-2.174-.017 5.378 5.378 0 0 1 .574.475m-.87-.299a6.037 6.037 0 0 0-1.208 1.128 13.515 13.515 0 0 1 1.186 1.784 13.43 13.43 0 0 1 1.21-1.814 5.752 5.752 0 0 0-1.188-1.098zm-2.51-.156a6.553 6.553 0 0 1 1.098 1.041A6.508 6.508 0 0 1 20.576.97a2.388 2.388 0 0 0-1.12-.31 2.346 2.346 0 0 0-1.097.325zm-.291 3.068a13.498 13.498 0 0 1 1.186-1.783 6.075 6.075 0 0 0-1.19-1.115 5.3 5.3 0 0 0-.444.305 3.915 3.915 0 0 0-.743.803 13.498 13.498 0 0 1 1.19 1.79zm0 5.323l1.216-2.32-.967-1.845c-.005-.01-.095-.206-.25-.503-.152.294-.24.486-.244.495l-.97 1.852zm0 5.305l1.215-2.32-1.215-2.32-1.215 2.32zm0 5.333c.152-.294.24-.486.245-.495l.97-1.853-1.215-2.32-1.216 2.32.966 1.845c.005.01.095.206.25.503zm1.186 2.439a13.517 13.517 0 0 1-1.186-1.784 13.456 13.456 0 0 1-1.199 1.8 3.265 3.265 0 0 0 1.111 1.16 5.915 5.915 0 0 0 1.274-1.176zm1.304 1.286a6.546 6.546 0 0 1-1.1-1.043 6.406 6.406 0 0 1-1.172 1.092 2.967 2.967 0 0 0 1.164.275 2.304 2.304 0 0 0 1.108-.324zm1.475-1.287a13.52 13.52 0 0 1-1.186-1.783 13.498 13.498 0 0 1-1.185 1.784 6.085 6.085 0 0 0 1.184 1.111 6.08 6.08 0 0 0 1.187-1.112zm1.306 1.289a6.542 6.542 0 0 1-1.102-1.045 6.545 6.545 0 0 1-1.102 1.045 2.046 2.046 0 0 0 2.204 0zm1.474-1.288a13.52 13.52 0 0 1-1.186-1.783 13.497 13.497 0 0 1-1.186 1.783 6.083 6.083 0 0 0 1.186 1.112 6.08 6.08 0 0 0 1.186-1.112zm1.306 1.288a6.547 6.547 0 0 1-1.102-1.045 6.545 6.545 0 0 1-1.102 1.045 2.045 2.045 0 0 0 2.204 0zm1.473-1.288a13.519 13.519 0 0 1-1.186-1.783 13.507 13.507 0 0 1-1.185 1.783 6.082 6.082 0 0 0 1.185 1.112 6.08 6.08 0 0 0 1.186-1.112zM5.559.35v.308l.001.001V.35h-.001zM5.559 24.062v.308h.001v-.308h-.001z"/><path class="b" d="M16.677 22.205v.49a6.545 6.545 0 0 1-1.102 1.045 2.29 2.29 0 0 0 1.102.322v.308a2.678 2.678 0 0 1-1.39-.433 2.68 2.68 0 0 1-1.39.433 2.678 2.678 0 0 1-1.39-.433 2.68 2.68 0 0 1-1.389.433 2.68 2.68 0 0 1-1.39-.433 2.68 2.68 0 0 1-1.39.433l-.052.001a3.227 3.227 0 0 1-1.422-.387 2.627 2.627 0 0 1-1.304.386v-.308a2.222 2.222 0 0 0 .995-.265 3.599 3.599 0 0 1-.995-1.061v-.537a14.105 14.105 0 0 0 1.211-1.854 13.46 13.46 0 0 1-.35-.7L5.56 18v-.668l1.214-2.32-1.214-2.319v-.667l1.215-2.319-1.215-2.32v-.666l.866-1.653c.018-.042.142-.31.345-.692A14.133 14.133 0 0 0 5.56 2.522v-.508a4.13 4.13 0 0 1 .753-.8c.119-.091.23-.165.34-.238A2.285 2.285 0 0 0 5.56.66V.35a2.685 2.685 0 0 1 1.398.44A2.736 2.736 0 0 1 8.352.35a2.755 2.755 0 0 1 1.402.416A2.663 2.663 0 0 1 11.118.35a2.678 2.678 0 0 1 1.39.433 2.68 2.68 0 0 1 1.39-.433 2.678 2.678 0 0 1 1.39.433A2.68 2.68 0 0 1 16.676.35v.308a2.29 2.29 0 0 0-1.102.323 6.547 6.547 0 0 1 1.102 1.044v.49a13.988 13.988 0 0 0-1.212 1.86c.204.385.33.657.35.7l.862 1.647v.666-.001l-1.216 2.32 1.216 2.32v.666l-1.216 2.32 1.216 2.32v-.001.667l-.867 1.654c-.019.041-.142.31-.345.692a14.006 14.006 0 0 0 1.212 1.86zm-1.39-6.86l-1.215 2.32.966 1.845c.004.01.095.206.249.503.153-.294.241-.486.245-.495l.97-1.852zM9.728 10.04l-1.215 2.32 1.215 2.32 1.216-2.32zm1.39 1.987l1.216-2.32-1.216-2.32-1.215 2.32zm-1.216 2.986l1.216 2.32 1.215-2.32-1.215-2.32zm2.606-.333l1.215-2.32-1.215-2.32-1.216 2.32zm.174.333l1.215 2.32 1.216-2.32-1.216-2.32zm1.215-2.986l1.216-2.32-1.215-2.32-1.216 2.32zm.867-6.96c.019-.04.143-.31.345-.691a14.005 14.005 0 0 0-1.212-1.861 13.95 13.95 0 0 0-1.203 1.846c.202.394.323.673.342.717l.861 1.644zm-2.25-.371c-.156.3-.247.497-.251.506l-.97 1.853 1.215 2.32 1.215-2.32-.966-1.845c-.005-.011-.092-.211-.243-.514zm-.175-.337a12.976 12.976 0 0 0-1.197-1.875 13.906 13.906 0 0 0-1.236 1.892c.204.384.33.656.35.7l.862 1.646.867-1.654c.019-.043.146-.318.354-.71zm-2.61.348c-.153.294-.242.486-.246.495l-.97 1.853 1.215 2.32 1.216-2.32-.966-1.845c-.005-.01-.095-.206-.25-.503zm-.178-.33a14.003 14.003 0 0 0-1.213-1.862 13.965 13.965 0 0 0-1.212 1.86c.205.385.33.657.35.7l.863 1.647.867-1.654c.018-.042.142-.31.345-.692zm-1.212 3.01l-1.216 2.32 1.215 2.32 1.216-2.32zm0 5.305l-1.216 2.32 1.216 2.32 1.215-2.32zm0 5.306l-.867 1.655c-.019.041-.143.31-.346.692a13.997 13.997 0 0 0 1.213 1.86 13.983 13.983 0 0 0 1.212-1.86 13.53 13.53 0 0 1-.35-.7zm1.39 2.015c.152-.294.24-.486.244-.495l.97-1.853-1.215-2.32-1.215 2.32.966 1.845c.005.01.095.206.25.503zm.177.331a14.012 14.012 0 0 0 1.212 1.86 13.94 13.94 0 0 0 1.212-1.86c-.204-.384-.33-.656-.35-.7l-.862-1.646-.867 1.655c-.019.041-.142.31-.345.691zm2.602-.33c.152-.295.24-.487.245-.496l.97-1.852-1.215-2.32-1.216 2.32.966 1.844c.005.01.095.206.25.503zm.177.33a14.006 14.006 0 0 0 1.212 1.861 13.983 13.983 0 0 0 1.212-1.86 13.48 13.48 0 0 1-.35-.7l-.862-1.647-.866 1.655c-.019.041-.143.31-.346.692zm2.602-10.304l-1.215 2.32 1.215 2.32 1.215-2.32zm0-5.333c-.153.294-.241.486-.245.495l-.97 1.853 1.215 2.32 1.216-2.32-.966-1.845c-.005-.01-.095-.206-.25-.503zm-1.186-2.438a13.52 13.52 0 0 1 1.186 1.783 13.506 13.506 0 0 1 1.186-1.783 6.08 6.08 0 0 0-1.186-1.113 6.08 6.08 0 0 0-1.186 1.113zM12.795.98a6.547 6.547 0 0 1 1.102 1.044A6.545 6.545 0 0 1 15 .981a2.29 2.29 0 0 0-1.102-.323 2.29 2.29 0 0 0-1.102.323zM11.35 2.236a12.601 12.601 0 0 1 1.17 1.795 13.47 13.47 0 0 1 1.174-1.762 6.08 6.08 0 0 0-1.185-1.113 6.022 6.022 0 0 0-1.159 1.08zm-.729-.797a7.16 7.16 0 0 1 .525.555A6.487 6.487 0 0 1 12.22.981a2.29 2.29 0 0 0-1.102-.323 2.273 2.273 0 0 0-1.072.306 5.378 5.378 0 0 1 .574.475m-.87-.299a6.037 6.037 0 0 0-1.208 1.128 13.515 13.515 0 0 1 1.186 1.784 13.43 13.43 0 0 1 1.21-1.814A5.752 5.752 0 0 0 9.75 1.14zM7.24.984a6.553 6.553 0 0 1 1.098 1.041A6.508 6.508 0 0 1 9.457.97 2.388 2.388 0 0 0 8.338.66 2.346 2.346 0 0 0 7.24.983zM6.95 4.052a13.498 13.498 0 0 1 1.185-1.783 6.075 6.075 0 0 0-1.189-1.115 5.3 5.3 0 0 0-.444.305 3.915 3.915 0 0 0-.743.803 13.498 13.498 0 0 1 1.19 1.79zm0 5.323l1.216-2.32-.967-1.845c-.005-.01-.095-.206-.25-.503-.152.294-.24.486-.244.495l-.97 1.852zm0 5.305l1.215-2.32-1.215-2.32-1.216 2.32zm0 5.333c.152-.294.24-.486.245-.495l.97-1.853-1.215-2.32-1.216 2.32.966 1.845c.005.01.095.206.25.503zm1.186 2.439a13.517 13.517 0 0 1-1.186-1.784 13.456 13.456 0 0 1-1.199 1.8 3.265 3.265 0 0 0 1.111 1.16 5.915 5.915 0 0 0 1.274-1.176zm1.304 1.286a6.546 6.546 0 0 1-1.1-1.043 6.406 6.406 0 0 1-1.172 1.092 2.967 2.967 0 0 0 1.164.275 2.304 2.304 0 0 0 1.108-.324zm1.475-1.287a13.52 13.52 0 0 1-1.186-1.783 13.498 13.498 0 0 1-1.186 1.784 6.085 6.085 0 0 0 1.185 1.111 6.08 6.08 0 0 0 1.187-1.112zm1.306 1.289a6.542 6.542 0 0 1-1.102-1.045 6.545 6.545 0 0 1-1.102 1.045 2.29 2.29 0 0 0 1.102.322 2.29 2.29 0 0 0 1.102-.322zm1.474-1.288a13.52 13.52 0 0 1-1.186-1.783 13.497 13.497 0 0 1-1.186 1.783 6.083 6.083 0 0 0 1.186 1.112 6.08 6.08 0 0 0 1.186-1.112zM15 23.74a6.547 6.547 0 0 1-1.102-1.045 6.545 6.545 0 0 1-1.103 1.045 2.29 2.29 0 0 0 1.102.322A2.29 2.29 0 0 0 15 23.74zm1.473-1.288a13.519 13.519 0 0 1-1.186-1.783 13.507 13.507 0 0 1-1.185 1.783 6.082 6.082 0 0 0 1.185 1.112 6.08 6.08 0 0 0 1.186-1.112z"/><path class="b" d="M5.56 22.205v.49h-.001a6.545 6.545 0 0 1-1.102 1.045 2.29 2.29 0 0 0 1.102.322v.308a2.678 2.678 0 0 1-1.39-.433 2.68 2.68 0 0 1-1.39.433 2.678 2.678 0 0 1-1.39-.433A2.68 2.68 0 0 1 0 24.37a2.68 2.68 0 0 1-1.39-.433 2.68 2.68 0 0 1-1.39.433l-.052.001a3.227 3.227 0 0 1-1.422-.387 2.627 2.627 0 0 1-1.305.386v-.308a2.222 2.222 0 0 0 .996-.265 3.599 3.599 0 0 1-.996-1.061v-.537a14.105 14.105 0 0 0 1.212-1.854 13.46 13.46 0 0 1-.35-.7L-5.559 18v-.668l1.215-2.32-1.215-2.319v-.667l1.215-2.319-1.215-2.32v-.666l.867-1.653c.018-.042.142-.31.345-.692a14.133 14.133 0 0 0-1.212-1.854v-.508a4.13 4.13 0 0 1 .754-.8c.119-.091.23-.165.34-.238A2.285 2.285 0 0 0-5.56.66V.35a2.685 2.685 0 0 1 1.4.44A2.736 2.736 0 0 1-2.767.35a2.755 2.755 0 0 1 1.402.416A2.663 2.663 0 0 1 0 .35a2.678 2.678 0 0 1 1.39.433A2.68 2.68 0 0 1 2.78.35a2.678 2.678 0 0 1 1.389.433A2.68 2.68 0 0 1 5.559.35v.308a2.29 2.29 0 0 0-1.102.323 6.547 6.547 0 0 1 1.102 1.044v.49a13.988 13.988 0 0 0-1.212 1.86c.204.385.33.657.35.7l.862 1.647v.666-.001l-1.216 2.32 1.216 2.32v.666l-1.216 2.32 1.216 2.32v-.001.667l-.867 1.654c-.019.041-.143.31-.345.692a14.006 14.006 0 0 0 1.212 1.86zm-1.391-6.86l-1.215 2.32.965 1.845c.005.01.095.206.25.503.153-.294.241-.486.245-.495l.97-1.852zM-1.39 10.04l-1.215 2.32 1.215 2.32 1.216-2.32zM0 12.027l1.215-2.32L0 7.387l-1.216 2.32zm-1.216 2.986L0 17.333l1.215-2.32L0 12.693zm2.606-.333l1.215-2.32-1.215-2.32-1.216 2.32zm.174.333l1.215 2.32 1.216-2.32-1.216-2.32zm1.215-2.986l1.216-2.32-1.216-2.32-1.215 2.32zm.867-6.96c.019-.04.143-.31.345-.691A14.005 14.005 0 0 0 2.78 2.515a13.95 13.95 0 0 0-1.203 1.846c.202.394.323.673.342.717l.861 1.644zm-2.25-.371c-.156.3-.247.497-.251.506l-.97 1.853 1.215 2.32 1.215-2.32L1.64 5.21C1.634 5.2 1.547 5 1.396 4.696zm-.175-.337A12.976 12.976 0 0 0 .024 2.484a13.906 13.906 0 0 0-1.236 1.892c.204.384.33.656.35.7L0 6.721l.867-1.654c.019-.043.146-.318.354-.71zm-2.61.348c-.153.294-.242.486-.246.495l-.97 1.853 1.215 2.32 1.216-2.32-.967-1.845a12.42 12.42 0 0 0-.249-.503zm-.178-.33A14.003 14.003 0 0 0-2.78 2.514a13.965 13.965 0 0 0-1.212 1.86c.205.385.33.657.35.7l.863 1.647.866-1.654c.019-.042.143-.31.346-.692zm-1.212 3.01l-1.216 2.32 1.215 2.32 1.216-2.32zm0 5.305l-1.216 2.32 1.215 2.32 1.216-2.32zm0 5.306l-.867 1.655c-.019.041-.143.31-.346.692a13.997 13.997 0 0 0 1.212 1.86 13.983 13.983 0 0 0 1.212-1.86 13.53 13.53 0 0 1-.349-.7zm1.39 2.015c.152-.294.24-.486.244-.495l.97-1.853-1.215-2.32-1.215 2.32.966 1.845c.005.01.095.206.25.503zm.177.331A14.012 14.012 0 0 0 0 22.204a13.94 13.94 0 0 0 1.212-1.86c-.205-.384-.33-.656-.35-.7L0 17.999l-.867 1.655c-.019.041-.143.31-.345.691zm2.602-.33c.152-.295.24-.487.245-.496l.97-1.852-1.215-2.32-1.216 2.32.966 1.844c.005.01.095.206.25.503zm.177.33a14.006 14.006 0 0 0 1.212 1.861 13.983 13.983 0 0 0 1.212-1.86 13.48 13.48 0 0 1-.35-.7l-.862-1.647-.866 1.655c-.019.041-.143.31-.346.692zM4.17 10.04l-1.215 2.32 1.215 2.32 1.215-2.32zm0-5.333c-.153.294-.241.486-.245.495l-.97 1.853 1.215 2.32 1.216-2.32-.966-1.845c-.005-.01-.095-.206-.25-.503zM2.983 2.269A13.52 13.52 0 0 1 4.17 4.052a13.506 13.506 0 0 1 1.186-1.783 6.08 6.08 0 0 0-1.186-1.113 6.08 6.08 0 0 0-1.186 1.113zM1.677.98A6.547 6.547 0 0 1 2.78 2.025 6.545 6.545 0 0 1 3.881.981 2.29 2.29 0 0 0 2.78.658a2.29 2.29 0 0 0-1.102.323zM.231 2.236a12.601 12.601 0 0 1 1.17 1.795A13.47 13.47 0 0 1 2.575 2.27 6.08 6.08 0 0 0 1.39 1.156 6.022 6.022 0 0 0 .23 2.236zm-.729-.797a7.16 7.16 0 0 1 .525.555A6.487 6.487 0 0 1 1.102.981 2.29 2.29 0 0 0 0 .658a2.273 2.273 0 0 0-1.072.306 5.378 5.378 0 0 1 .574.475m-.87-.299a6.037 6.037 0 0 0-1.208 1.128A13.515 13.515 0 0 1-1.39 4.052 13.43 13.43 0 0 1-.18 2.238 5.752 5.752 0 0 0-1.369 1.14zm-2.51-.156A6.553 6.553 0 0 1-2.78 2.025 6.508 6.508 0 0 1-1.66.97 2.388 2.388 0 0 0-2.78.66a2.346 2.346 0 0 0-1.098.325zm-.291 3.068a13.498 13.498 0 0 1 1.185-1.783 6.075 6.075 0 0 0-1.189-1.115 5.3 5.3 0 0 0-.444.305 3.915 3.915 0 0 0-.743.803 13.498 13.498 0 0 1 1.19 1.79zm0 5.323l1.215-2.32-.966-1.845c-.005-.01-.095-.206-.25-.503-.152.294-.24.486-.244.495l-.97 1.852zm0 5.305l1.215-2.32-1.215-2.32-1.216 2.32zm0 5.333c.152-.294.24-.486.245-.495l.97-1.853-1.215-2.32-1.216 2.32.966 1.845c.005.01.095.206.25.503zm1.185 2.439a13.517 13.517 0 0 1-1.185-1.784 13.456 13.456 0 0 1-1.199 1.8 3.265 3.265 0 0 0 1.111 1.16 5.915 5.915 0 0 0 1.273-1.176zm1.305 1.286a6.546 6.546 0 0 1-1.1-1.043 6.406 6.406 0 0 1-1.172 1.092 2.967 2.967 0 0 0 1.164.275 2.304 2.304 0 0 0 1.108-.324zm1.475-1.287a13.52 13.52 0 0 1-1.186-1.783 13.498 13.498 0 0 1-1.186 1.784 6.085 6.085 0 0 0 1.185 1.111 6.08 6.08 0 0 0 1.187-1.112zm1.306 1.289A6.542 6.542 0 0 1 0 22.695a6.545 6.545 0 0 1-1.102 1.045A2.29 2.29 0 0 0 0 24.062a2.29 2.29 0 0 0 1.102-.322zm1.474-1.288a13.52 13.52 0 0 1-1.186-1.783 13.497 13.497 0 0 1-1.186 1.783 6.083 6.083 0 0 0 1.186 1.112 6.08 6.08 0 0 0 1.186-1.112zM3.88 23.74a6.547 6.547 0 0 1-1.102-1.045 6.545 6.545 0 0 1-1.102 1.045 2.29 2.29 0 0 0 1.102.322 2.29 2.29 0 0 0 1.102-.322zm1.474-1.288a13.519 13.519 0 0 1-1.186-1.784 13.507 13.507 0 0 1-1.186 1.784 6.082 6.082 0 0 0 1.186 1.112 6.08 6.08 0 0 0 1.186-1.112z"/></pattern></defs><g opacity=".25"><path fill="url(#a)" d="M419.926 617.327V509.653l643.647-378.052v174.67L1450 87.335v529.992H419.926z"/><path fill="url(#b)" d="M0 857.797V398.115L585.025 0v857.797H0z"/><path fill="url(#c)" d="M337.18 873.106V413.424L922.205 15.309v857.797H337.18z"/></g></svg>