<svg xmlns="http://www.w3.org/2000/svg" xmlns:xlink="http://www.w3.org/1999/xlink" viewBox="0 0 1200 1200"><defs><style>.cls-1,.cls-5,.cls-6,.cls-8{fill:none;}.cls-2{fill:#949494;}.cls-3{fill:#f3f3f3;}.cls-4{fill:#dfdfdf;}.cls-5{stroke:#f3f3f3;stroke-width:6px;}.cls-5,.cls-6{stroke-miterlimit:10;}.cls-6{stroke:#dfdfdf;stroke-width:11px;stroke-dasharray:22;}.cls-7{fill:url(#New_Pattern);}.cls-8{stroke:#000;stroke-linecap:round;stroke-linejoin:round;stroke-width:2.5px;}.cls-9{fill:#333;}</style><pattern id="New_Pattern" data-name="New Pattern" width="12" height="12" patternUnits="userSpaceOnUse" viewBox="0 0 12 12"><rect class="cls-1" width="12" height="12"/><circle class="cls-2" cx="12" cy="9" r="2"/><circle class="cls-2" cx="6" cy="12" r="2"/><circle class="cls-2" cy="9" r="2"/><circle class="cls-2" cx="12" cy="3" r="2"/><circle class="cls-2" cx="6" cy="6" r="2"/><circle class="cls-2" cy="3" r="2"/><circle class="cls-2" cx="6" r="2"/></pattern></defs><title>Artboard 1</title><g id="Backgrund"><path class="cls-3" d="M451.62,539.6h0c-4.26-3.09-7.2-6-8.24-8.37-2.42-5.61,3.3-27.66,14.82-52.24H134V586H445.93C447.71,565.81,449.94,549.84,451.62,539.6Z"/><rect class="cls-4" x="1005.5" y="142.5" width="137" height="188"/><rect class="cls-3" x="1005.5" y="142.5" width="137" height="13"/><rect class="cls-3" x="134" y="217" width="334" height="107"/><circle class="cls-4" cx="188.5" cy="269.5" r="35"/><rect class="cls-4" x="247.5" y="236.5" width="196" height="12"/><rect class="cls-4" x="247.5" y="264.5" width="66" height="12"/><polyline class="cls-5" points="211.89 255.42 183 284.31 171.05 272.35"/><rect class="cls-3" x="134" y="348" width="334" height="107"/><circle class="cls-4" cx="188.5" cy="400.5" r="35"/><rect class="cls-4" x="247.5" y="367.5" width="196" height="12"/><rect class="cls-4" x="247.5" y="395.5" width="66" height="12"/><polyline class="cls-5" points="211.89 386.42 183 415.31 171.05 403.35"/><circle class="cls-4" cx="188.5" cy="531.5" r="35"/><rect class="cls-4" x="247.5" y="498.5" width="196" height="12"/><rect class="cls-4" x="247.5" y="526.5" width="66" height="12"/><polyline class="cls-5" points="211.89 517.42 183 546.3 171.05 534.35"/><rect class="cls-3" x="978.5" y="173.5" width="137" height="188"/><rect class="cls-4" x="978.5" y="173.5" width="137" height="13"/><rect class="cls-4" x="993.5" y="209.5" width="108" height="9"/><rect class="cls-4" x="993.5" y="227.5" width="108" height="9"/><rect class="cls-4" x="993.5" y="245.5" width="108" height="9"/><path class="cls-6" d="M752.5,429.5c0-10,18-26,49-26,38,0,90,81,148,81,40,0,95-33,95-93"/></g><g id="Shadows"><polygon class="cls-7" points="521.46 404.49 510.37 409.72 488.27 430.61 479.61 441.88 467.21 461.53 458.22 479 451.92 493.6 446.93 507.67 443.5 521.28 442.86 530.68 446.7 535.55 451.62 539.6 450.25 548.46 445.09 596.39 442.97 646.79 443.78 690.06 447.05 732.47 453.79 779.06 467.33 836.19 474.74 860.92 478.53 859.16 475.25 808.53 471.36 802.61 467.81 787.74 464.6 758.16 462.57 718.95 461.73 685.83 462.57 647.3 463.93 617.04 465.79 593.05 469.64 560.25 472.21 540.49 479.31 506.35 487.08 475.59 493 459.7 500.43 440.1 509.56 422.69 521.46 404.49"/></g><g id="Vector"><path class="cls-7" d="M737,626c-2.36-3-5.61-7.06-9.31-11.86l-3.54-4.51-2.37-3.25c-3.81-5.06-7.82-10.53-11.69-16l0,0,0,0c-3.67-5.22-7.21-10.45-10.3-15.38l0-.06v0a130.79,130.79,0,0,1-8.12-14.58l.1-.06-4.56-.58-6.65-5.37-9.81-12.73L667,536.39l-1.69-.7c0,2.68,2.87,25.58,3.3,58C688.48,603.89,711.51,614.94,737,626Z"/><path class="cls-7" d="M738.37,700.92c-22-11.07-47.69-27-72.44-43.6-7,67.4-29.7,144.59-93.57,180.48C646.14,848.71,729,808,729,808l2.47-4.27,3.62-16.79,3.28-29.41,0-27.26Z"/><path d="M604,1156H507s-33-341-33-348c6,6,5,8,30,15,15,16,121,282,121,282Z"/><path d="M729,808v348H604L503.88,822.77C539,829,672,834,729,808Z"/><path class="cls-8" d="M451.62,539.6c-7,42.86-23.69,186,23.38,320.4a3.9,3.9,0,0,0,3.53-.84"/><path class="cls-8" d="M471,550.84c-14.27-7-25.36-14.39-27.61-19.6-5.4-12.52,29.75-107,79.48-128.64"/><path class="cls-8" d="M624,366.71c11.78,4.46,22.45,12,32.1,21.85"/><path class="cls-8" d="M738,700.06c1.59,58.4-2.59,102.42-9,107.94-21,18-236,35-255,0-17.92-33-35.83-400.31,98-442.13"/><path class="cls-8" d="M644.3,398.19A46.42,46.42,0,0,1,652,391c39-29,130,87,129,108s-77,65-93,61c-4.12-1-12.16-10-20.88-23.46"/><path class="cls-8" d="M572,365.87V346.29"/><path class="cls-8" d="M624,316.21V381c0,7.19-15.91,10.71-30.12,10.05"/><path class="cls-8" d="M572,346.29c-22.4-9.93-39-45.92-39-88.79A157.05,157.05,0,0,1,535.74,228"/><path class="cls-8" d="M584.5,349a30.71,30.71,0,0,1-12.5-2.71"/><path class="cls-8" d="M633.82,283.92a125.6,125.6,0,0,1-9.58,31.78"/><path class="cls-8" d="M626.28,311H635c13,0,19-5,39-5,35,0,84,43,144,43,65,0,92-49,92-104,0-73-69-92-102-92-39,0-71,28-113,28-30,0-59-36-101-36-54,0-71,29-71,49,0,16,9.74,34,12.74,34,.9-5.29,6.26-23,8.26-25,.6,2.11,4.85,8.05,11.5,15.31"/><path class="cls-8" d="M625,259.28a13.5,13.5,0,1,1,8.9,24.65"/><path class="cls-9" d="M544,576.38c-17.94-10.35-26.43-29.22-19-42.13,4.86-8.41,15.27-12.21,26.9-11l-7.46-49.43L482,483.24l16.15,107.09,58.36-8.8A50.23,50.23,0,0,1,544,576.38Z"/><path class="cls-8" d="M691.58,560.26c8.47,18.65,35.23,53,45.42,65.74-83-36-140-72-145-77a2.71,2.71,0,0,0-2.55-.45A46.2,46.2,0,0,0,571,529.62c-17.94-10.36-38.52-8.28-46,4.63s1,31.78,19,42.13a47.88,47.88,0,0,0,21,6.52,6.72,6.72,0,0,0,1,1.1c11,10,169,132,217,132,12,0,31-19,31-57,0-13.22-8.92-86.22-41.09-145.68"/></g></svg>